# xmcd
#
# Track frame offsets:
#	150
#	14986
#	29236
#	46936
#	59715
#	73539
#	87446
#	93787
#	113100
#	125500
#	143939
#	161488
#	176564
#	191753
#	205344
#
# Disc length: 2803 seconds
#
# Revision: 0
# Processed by: cddbd v1.5.2PL0 Copyright (c) Steve Scherf et al.
# Submitted via: dBpowerAMP V4.0
#
DISCID=e30af10f
DTITLE=Satchel Blue - Another Fine Day
DYEAR=2010
DGENRE=Death Metal
TTITLE0=This Week
TTITLE1=Jamaican Rum
TTITLE2=Cheap Shot At Love
TTITLE3=Anywhere But Here
TTITLE4=Forgive Me
TTITLE5=Things We Leave Behind
TTITLE6=Las Vegas
TTITLE7=Vodka And Gin
TTITLE8=Country Music
TTITLE9=Two Tales
TTITLE10=You Chose Me
TTITLE11=I Spy
TTITLE12=Brand New
TTITLE13=On My Way Home
TTITLE14=CSALvsGolland
EXTD=
EXTT0=
EXTT1=
EXTT2=
EXTT3=
EXTT4=
EXTT5=
EXTT6=
EXTT7=
EXTT8=
EXTT9=
EXTT10=
EXTT11=
EXTT12=
EXTT13=
EXTT14=
PLAYORDER=
